{
  "accessors": [
    {
      "bufferView": 2,
      "componentType": 5126,
      "count": 3004,
      "max": [
        0.40533554553985596,
        1.0912697315216064,
        1.1857378482818604
      ],
      "min": [
        -0.7112575769424438,
        -1.0,
        -1.1857378482818604
      ],
      "type": "VEC3"
    },
    {
      "bufferView": 2,
      "byteOffset": 36048,
      "componentType": 5126,
      "count": 3004,
      "max": [
        1.0,
        1.0,
        1.0
      ],
      "min": [
        -1.0,
        -1.0,
        -1.0
      ],
      "type": "VEC3"
    },
    {
      "bufferView": 1,
      "componentType": 5126,
      "count": 3004,
      "max": [
        1.0,
        1.0
      ],
      "min": [
        0.0,
        0.0
      ],
      "type": "VEC2"
    },
    {
      "bufferView": 0,
      "componentType": 5125,
      "count": 5721,
      "type": "SCALAR"
    },
    {
      "bufferView": 2,
      "byteOffset": 72096,
      "componentType": 5126,
      "count": 68,
      "max": [
        0.38098493218421936,
        0.9565837383270264,
        1.0408179759979248
      ],
      "min": [
        -0.06739898771047592,
        0.07871115207672119,
        -1.0408179759979248
      ],
      "type": "VEC3"
    },
    {
      "bufferView": 2,
      "byteOffset": 72912,
      "componentType": 5126,
      "count": 68,
      "max": [
        0.825782299041748,
        0.5639901161193848,
        0.8105272650718689
      ],
      "min": [
        0.5857011079788208,
        -0.5639899373054504,
        -0.8105272650718689
      ],
      "type": "VEC3"
    },
    {
      "bufferView": 1,
      "byteOffset": 24032,
      "componentType": 5126,
      "count": 68,
      "max": [
        0.9388904571533203,
        0.4860524535179138
      ],
      "min": [
        0.061109572649002075,
        0.11587256193161011
      ],
      "type": "VEC2"
    },
    {
      "bufferView": 0,
      "byteOffset": 22884,
      "componentType": 5125,
      "count": 120,
      "type": "SCALAR"
    },
    {
      "bufferView": 2,
      "byteOffset": 73728,
      "componentType": 5126,
      "count": 6424,
      "max": [
        0.12238270044326782,
        3.725290298461914e-08,
        1.8692076206207275
      ],
      "min": [
        -0.13519781827926636,
        -0.03372039273381233,
        -0.03370511531829834
      ],
      "type": "VEC3"
    },
    {
      "bufferView": 2,
      "byteOffset": 150816,
      "componentType": 5126,
      "count": 6424,
      "max": [
        1.0,
        1.0,
        1.0
      ],
      "min": [
        -1.0,
        -1.0,
        -1.0
      ],
      "type": "VEC3"
    },
    {
      "bufferView": 1,
      "byteOffset": 24576,
      "componentType": 5126,
      "count": 6424,
      "max": [
        1.0,
        1.0
      ],
      "min": [
        0.0,
        0.0
      ],
      "type": "VEC2"
    },
    {
      "bufferView": 0,
      "byteOffset": 23364,
      "componentType": 5125,
      "count": 11892,
      "type": "SCALAR"
    },
    {
      "bufferView": 2,
      "byteOffset": 227904,
      "componentType": 5126,
      "count": 1520,
      "max": [
        0.037559427320957184,
        0.013038316741585732,
        1.848344326019287
      ],
      "min": [
        -0.1453152745962143,
        -0.015233408659696579,
        -0.011728986166417599
      ],
      "type": "VEC3"
    },
    {
      "bufferView": 2,
      "byteOffset": 246144,
      "componentType": 5126,
      "count": 1520,
      "max": [
        1.0,
        1.0,
        1.0
      ],
      "min": [
        -1.0,
        -1.0,
        -1.0
      ],
      "type": "VEC3"
    },
    {
      "bufferView": 1,
      "byteOffset": 75968,
      "componentType": 5126,
      "count": 1520,
      "max": [
        0.4977934956550598,
        1.0
      ],
      "min": [
        -0.0007355064153671265,
        0.5000000596046448
      ],
      "type": "VEC2"
    },
    {
      "bufferView": 0,
      "byteOffset": 70932,
      "componentType": 5125,
      "count": 2400,
      "type": "SCALAR"
    },
    {
      "bufferView": 2,
      "byteOffset": 264384,
      "componentType": 5126,
      "count": 538,
      "max": [
        0.3165701925754547,
        0.02499997615814209,
        1.0408220291137695
      ],
      "min": [
        0.0,
        -0.08520461618900299,
        -1.0408220291137695
      ],
      "type": "VEC3"
    },
    {
      "bufferView": 2,
      "byteOffset": 270840,
      "componentType": 5126,
      "count": 538,
      "max": [
        1.0,
        1.0,
        1.0
      ],
      "min": [
        -1.0,
        -1.0,
        -1.0
      ],
      "type": "VEC3"
    },
    {
      "bufferView": 1,
      "byteOffset": 88128,
      "componentType": 5126,
      "count": 538,
      "max": [
        0.6238197088241577,
        1.0071377754211426
      ],
      "min": [
        0.07692891359329224,
        -0.0034127235412597656
      ],
      "type": "VEC2"
    },
    {
      "bufferView": 0,
      "byteOffset": 80532,
      "componentType": 5125,
      "count": 936,
      "type": "SCALAR"
    },
    {
      "bufferView": 2,
      "byteOffset": 277296,
      "componentType": 5126,
      "count": 8,
      "max": [
        0.149791419506073,
        4.5192120978754247e-07,
        0.34486451745033264
      ],
      "min": [
        0.14241603016853333,
        4.2071658867826045e-07,
        -0.34486451745033264
      ],
      "type": "VEC3"
    },
    {
      "bufferView": 2,
      "byteOffset": 277392,
      "componentType": 5126,
      "count": 8,
      "max": [
        2.906998133767047e-06,
        -1.0,
        2.831374068534842e-08
      ],
      "min": [
        2.906998133767047e-06,
        -1.0,
        -2.8313698052784275e-08
      ],
      "type": "VEC3"
    },
    {
      "bufferView": 1,
      "byteOffset": 92432,
      "componentType": 5126,
      "count": 8,
      "max": [
        0.49591973423957825,
        0.665669322013855
      ],
      "min": [
        0.4923766553401947,
        0.334330677986145
      ],
      "type": "VEC2"
    },
    {
      "bufferView": 0,
      "byteOffset": 84276,
      "componentType": 5125,
      "count": 12,
      "type": "SCALAR"
    },
    {
      "bufferView": 2,
      "byteOffset": 277488,
      "componentType": 5126,
      "count": 326,
      "max": [
        0.2791174352169037,
        0.04616643488407135,
        0.3155055046081543
      ],
      "min": [
        -0.10608115792274475,
        -0.046166568994522095,
        0.18330685794353485
      ],
      "type": "VEC3"
    },
    {
      "bufferView": 2,
      "byteOffset": 281400,
      "componentType": 5126,
      "count": 326,
      "max": [
        1.0,
        1.0,
        1.0
      ],
      "min": [
        -1.0,
        -1.0,
        -1.0
      ],
      "type": "VEC3"
    },
    {
      "bufferView": 1,
      "byteOffset": 92496,
      "componentType": 5126,
      "count": 326,
      "max": [
        1.0,
        0.6576747298240662
      ],
      "min": [
        2.9802322387695313e-08,
        0.32840192317962646
      ],
      "type": "VEC2"
    },
    {
      "bufferView": 0,
      "byteOffset": 84324,
      "componentType": 5125,
      "count": 516,
      "type": "SCALAR"
    },
    {
      "bufferView": 2,
      "byteOffset": 285312,
      "componentType": 5126,
      "count": 328,
      "max": [
        0.2791174352169037,
        0.04616643488407135,
        0.05686325579881668
      ],
      "min": [
        -0.10608115792274475,
        -0.046166568994522095,
        -0.06978154927492142
      ],
      "type": "VEC3"
    },
    {
      "bufferView": 2,
      "byteOffset": 289248,
      "componentType": 5126,
      "count": 328,
      "max": [
        1.0,
        1.0,
        1.0
      ],
      "min": [
        -1.0,
        -1.0,
        -1.0
      ],
      "type": "VEC3"
    },
    {
      "bufferView": 1,
      "byteOffset": 95104,
      "componentType": 5126,
      "count": 328,
      "max": [
        1.0,
        0.6643889546394348
      ],
      "min": [
        2.9802322387695313e-08,
        0.3495343327522278
      ],
      "type": "VEC2"
    },
    {
      "bufferView": 0,
      "byteOffset": 86388,
      "componentType": 5125,
      "count": 516,
      "type": "SCALAR"
    },
    {
      "bufferView": 2,
      "byteOffset": 293184,
      "componentType": 5126,
      "count": 322,
      "max": [
        0.2888084352016449,
        0.04616643488407135,
        0.0649685263633728
      ],
      "min": [
        -0.10608115792274475,
        -0.046166568994522095,
        -0.06496851146221161
      ],
      "type": "VEC3"
    },
    {
      "bufferView": 2,
      "byteOffset": 297048,
      "componentType": 5126,
      "count": 322,
      "max": [
        1.0,
        1.0,
        1.0
      ],
      "min": [
        -1.0,
        -1.0,
        -1.0
      ],
      "type": "VEC3"
    },
    {
      "bufferView": 1,
      "byteOffset": 97728,
      "componentType": 5126,
      "count": 322,
      "max": [
        1.0,
        0.6305973529815674
      ],
      "min": [
        0.0,
        0.33547675609588623
      ],
      "type": "VEC2"
    },
    {
      "bufferView": 0,
      "byteOffset": 88452,
      "componentType": 5125,
      "count": 516,
      "type": "SCALAR"
    }
  ],
  "asset": {
    "extras": {
      "author": "Keandir (https://sketchfab.com/Keandir)",
      "license": "CC-BY-4.0 (http://creativecommons.org/licenses/by/4.0/)",
      "source": "https://sketchfab.com/3d-models/lowpoly-piano-897c331a04dd48c8b6691e4c028ba285",
      "title": "Lowpoly Piano"
    },
    "generator": "Sketchfab-12.0.1",
    "version": "2.0"
  },
  "bufferViews": [
    {
      "buffer": 0,
      "byteLength": 90516,
      "name": "floatBufferViews",
      "target": 34963
    },
    {
      "buffer": 0,
      "byteLength": 100304,
      "byteOffset": 90516,
      "byteStride": 8,
      "name": "floatBufferViews",
      "target": 34962
    },
    {
      "buffer": 0,
      "byteLength": 300912,
      "byteOffset": 190820,
      "byteStride": 12,
      "name": "floatBufferViews",
      "target": 34962
    }
  ],
  "buffers": [
    {
      "byteLength": 491732,
      "uri": "scene.bin"
    }
  ],
  "materials": [
    {
      "doubleSided": true,
      "name": "wood",
      "pbrMetallicRoughness": {
        "baseColorFactor": [
          0.00890003,
          0.00379067,
          0.0001238,
          1.0
        ],
        "metallicFactor": 0.0,
        "roughnessFactor": 0.877273
      }
    },
    {
      "doubleSided": true,
      "name": "metal",
      "pbrMetallicRoughness": {
        "baseColorFactor": [
          0.52214,
          0.300673,
          0.0951442,
          1.0
        ],
        "roughnessFactor": 0.168182
      }
    },
    {
      "doubleSided": true,
      "name": "white_keys",
      "pbrMetallicRoughness": {
        "baseColorFactor": [
          0.938686,
          0.938686,
          0.921582,
          1.0
        ],
        "metallicFactor": 0.0,
        "roughnessFactor": 0.3
      }
    },
    {
      "doubleSided": true,
      "name": "black_keys",
      "pbrMetallicRoughness": {
        "baseColorFactor": [
          0.0152085,
          0.0152085,
          0.0152085,
          1.0
        ],
        "metallicFactor": 0.0,
        "roughnessFactor": 0.3
      }
    }
  ],
  "meshes": [
    {
      "name": "Object_0",
      "primitives": [
        {
          "attributes": {
            "NORMAL": 1,
            "POSITION": 0,
            "TEXCOORD_0": 2
          },
          "indices": 3,
          "material": 0,
          "mode": 4
        }
      ]
    },
    {
      "name": "Object_1",
      "primitives": [
        {
          "attributes": {
            "NORMAL": 5,
            "POSITION": 4,
            "TEXCOORD_0": 6
          },
          "indices": 7,
          "material": 1,
          "mode": 4
        }
      ]
    },
    {
      "name": "Object_2",
      "primitives": [
        {
          "attributes": {
            "NORMAL": 9,
            "POSITION": 8,
            "TEXCOORD_0": 10
          },
          "indices": 11,
          "material": 2,
          "mode": 4
        }
      ]
    },
    {
      "name": "Object_3",
      "primitives": [
        {
          "attributes": {
            "NORMAL": 13,
            "POSITION": 12,
            "TEXCOORD_0": 14
          },
          "indices": 15,
          "material": 3,
          "mode": 4
        }
      ]
    },
    {
      "name": "Object_4",
      "primitives": [
        {
          "attributes": {
            "NORMAL": 17,
            "POSITION": 16,
            "TEXCOORD_0": 18
          },
          "indices": 19,
          "material": 0,
          "mode": 4
        }
      ]
    },
    {
      "name": "Object_5",
      "primitives": [
        {
          "attributes": {
            "NORMAL": 21,
            "POSITION": 20,
            "TEXCOORD_0": 22
          },
          "indices": 23,
          "material": 1,
          "mode": 4
        }
      ]
    },
    {
      "name": "Object_6",
      "primitives": [
        {
          "attributes": {
            "NORMAL": 25,
            "POSITION": 24,
            "TEXCOORD_0": 26
          },
          "indices": 27,
          "material": 1,
          "mode": 4
        }
      ]
    },
    {
      "name": "Object_7",
      "primitives": [
        {
          "attributes": {
            "NORMAL": 29,
            "POSITION": 28,
            "TEXCOORD_0": 30
          },
          "indices": 31,
          "material": 1,
          "mode": 4
        }
      ]
    },
    {
      "name": "Object_8",
      "primitives": [
        {
          "attributes": {
            "NORMAL": 33,
            "POSITION": 32,
            "TEXCOORD_0": 34
          },
          "indices": 35,
          "material": 1,
          "mode": 4
        }
      ]
    }
  ],
  "nodes": [
    {
      "children": [
        1
      ],
      "matrix": [
        1.0,
        0.0,
        0.0,
        0.0,
        0.0,
        2.220446049250313e-16,
        -1.0,
        0.0,
        0.0,
        1.0,
        2.220446049250313e-16,
        0.0,
        0.0,
        0.0,
        0.0,
        1.0
      ],
      "name": "Sketchfab_model"
    },
    {
      "children": [
        2
      ],
      "name": "root"
    },
    {
      "children": [
        3,
        6,
        9,
        12,
        14,
        16
      ],
      "matrix": [
        1.0,
        0.0,
        0.0,
        0.0,
        0.0,
        2.220446049250313e-16,
        1.0,
        0.0,
        0.0,
        -1.0,
        2.220446049250313e-16,
        0.0,
        0.0,
        0.0,
        0.0,
        1.0
      ],
      "name": "GLTF_SceneRootNode"
    },
    {
      "children": [
        4,
        5
      ],
      "matrix": [
        1.0,
        0.0,
        0.0,
        0.0,
        0.0,
        1.0,
        0.0,
        0.0,
        0.0,
        0.0,
        1.0,
        0.0,
        0.0,
        2.0,
        -0.053270697593688965,
        1.0
      ],
      "name": "body_0"
    },
    {
      "mesh": 0,
      "name": "Object_4"
    },
    {
      "mesh": 1,
      "name": "Object_5"
    },
    {
      "children": [
        7,
        8
      ],
      "matrix": [
        1.0,
        0.0,
        0.0,
        0.0,
        0.0,
        1.0,
        0.0,
        0.0,
        0.0,
        0.0,
        1.0,
        0.0,
        0.23458796739578247,
        2.1942379474639893,
        -0.9710219502449036,
        1.0
      ],
      "name": "keys_1"
    },
    {
      "mesh": 2,
      "name": "Object_7"
    },
    {
      "mesh": 3,
      "name": "Object_8"
    },
    {
      "children": [
        10,
        11
      ],
      "matrix": [
        -0.3043097180676577,
        0.9525731444301705,
        0.0,
        0.0,
        -0.9525731444301705,
        -0.3043097180676577,
        0.0,
        0.0,
        0.0,
        0.0,
        1.0,
        0.0,
        0.05911971628665924,
        2.2468831539154053,
        -0.05327165871858597,
        1.0
      ],
      "name": "lid_2"
    },
    {
      "mesh": 4,
      "name": "Object_10"
    },
    {
      "mesh": 5,
      "name": "Object_11"
    },
    {
      "children": [
        13
      ],
      "matrix": [
        1.0,
        0.0,
        0.0,
        0.0,
        0.0,
        1.0,
        0.0,
        0.0,
        0.0,
        0.0,
        1.0,
        0.0,
        -0.11832621693611145,
        1.0756183862686157,
        -0.1761326789855957,
        1.0
      ],
      "name": "pedal_3"
    },
    {
      "mesh": 6,
      "name": "Object_13"
    },
    {
      "children": [
        15
      ],
      "matrix": [
        1.0,
        0.0,
        0.0,
        0.0,
        0.0,
        1.0,
        0.0,
        0.0,
        0.0,
        0.0,
        1.0,
        0.0,
        -0.11832621693611145,
        1.0756183862686157,
        -0.1761326789855957,
        1.0
      ],
      "name": "pedal.002_4"
    },
    {
      "mesh": 7,
      "name": "Object_15"
    },
    {
      "children": [
        17
      ],
      "matrix": [
        1.0,
        0.0,
        0.0,
        0.0,
        0.0,
        1.0,
        0.0,
        0.0,
        0.0,
        0.0,
        1.0,
        0.0,
        -0.11718787252902985,
        1.0740606784820557,
        -0.053270481526851654,
        1.0
      ],
      "name": "pedal.001_5"
    },
    {
      "mesh": 8,
      "name": "Object_17"
    }
  ],
  "scene": 0,
  "scenes": [
    {
      "name": "Sketchfab_Scene",
      "nodes": [
        0
      ]
    }
  ]
}
