<svg
   viewBox="0 0 1920 1080"
   version="1.1"
   id="svg1"
   inkscape:version="1.3.2 (091e20ef0f, 2023-11-25, custom)"
   sodipodi:docname="sheet-music_inkscape.svg"
   xmlns:inkscape="http://www.inkscape.org/namespaces/inkscape"
   xmlns:sodipodi="http://sodipodi.sourceforge.net/DTD/sodipodi-0.dtd"
   xmlns="http://www.w3.org/2000/svg"
   xmlns:svg="http://www.w3.org/2000/svg">
  <sodipodi:namedview
     id="namedview1"
     pagecolor="#ffffff"
     bordercolor="#666666"
     borderopacity="1.0"
     inkscape:showpageshadow="2"
     inkscape:pageopacity="0.0"
     inkscape:pagecheckerboard="0"
     inkscape:deskcolor="#d1d1d1"
     inkscape:document-units="px"
     inkscape:zoom="0.55316374"
     inkscape:cx="723.11319"
     inkscape:cy="624.58902"
     inkscape:window-width="1920"
     inkscape:window-height="1004"
     inkscape:window-x="1920"
     inkscape:window-y="1080"
     inkscape:window-maximized="1"
     inkscape:current-layer="g43" />
  <defs
     id="defs1" />
  <g
     inkscape:label="Layer 1"
     inkscape:groupmode="layer"
     id="layer1">
    <rect
       style="fill:#9b4200;stroke-width:8;stroke-linecap:round;stroke-linejoin:round;paint-order:stroke fill markers;fill-opacity:1"
       id="rect1"
       width="1920"
       height="1080"
       x="0"
       y="0" />
    <path
       id="rect2"
       style="fill:#4f1900;stroke-width:8;stroke-linecap:round;stroke-linejoin:round;paint-order:stroke fill markers"
       d="M 0,685.16644 1920,623.80825 V 1080 H 0 Z"
       sodipodi:nodetypes="ccccc" />
    <path
       id="rect4"
       style="fill:#713100;stroke-width:8;stroke-linecap:round;stroke-linejoin:round;paint-order:stroke fill markers"
       d="M 80.532623,-58.801598 H 654.48734 L 641.70438,428.22902 98.428761,438.45539 Z"
       sodipodi:nodetypes="ccccc" />
    <path
       id="rect3"
       style="fill:#8bd7ff;stroke-width:8;stroke-linecap:round;stroke-linejoin:round;paint-order:stroke fill markers"
       d="m 117.6032,0 469.13449,-19.174434 2.55659,384.766974 -426.95073,3.83489 z"
       sodipodi:nodetypes="ccccc" />
    <g
       id="g43"
       inkscape:label="floor">
      <path
         id="rect30"
         style="fill:#76310d;stroke-width:6.01331;stroke-linecap:round;stroke-linejoin:round;paint-order:stroke fill markers;fill-opacity:1"
         d="m -126.15025,706.67694 706.93913,-19.02383 77.8287,88.73464 -706.939103,19.02383 z"
         sodipodi:nodetypes="ccccc" />
      <path
         id="path30"
         style="fill:#76310d;fill-opacity:1;stroke-width:6.01331;stroke-linecap:round;stroke-linejoin:round;paint-order:stroke fill markers"
         d="m 608.86972,686.22421 706.93918,-19.02383 77.8287,88.73464 -706.93915,19.02383 z"
         sodipodi:nodetypes="ccccc" />
      <path
         id="path31"
         style="fill:#76310d;fill-opacity:1;stroke-width:6.01331;stroke-linecap:round;stroke-linejoin:round;paint-order:stroke fill markers"
         d="m 1345.168,664.49318 706.9392,-19.02383 77.8287,88.73464 -706.9392,19.02383 z"
         sodipodi:nodetypes="ccccc" />
      <path
         id="path32"
         style="fill:#76310d;fill-opacity:1;stroke-width:6.01331;stroke-linecap:round;stroke-linejoin:round;paint-order:stroke fill markers"
         d="m 1079.2825,776.98319 706.9392,-19.02383 77.8287,88.73464 -706.9392,19.02383 z"
         sodipodi:nodetypes="ccccc" />
      <path
         id="path33"
         style="fill:#76310d;fill-opacity:1;stroke-width:6.01331;stroke-linecap:round;stroke-linejoin:round;paint-order:stroke fill markers"
         d="m 348.09741,798.71421 706.93919,-19.02383 77.8287,88.73464 -706.93919,19.02383 z"
         sodipodi:nodetypes="ccccc" />
      <path
         id="path34"
         style="fill:#76310d;fill-opacity:1;stroke-width:6.01331;stroke-linecap:round;stroke-linejoin:round;paint-order:stroke fill markers"
         d="m -385.64427,820.44524 706.93919,-19.02383 77.8287,88.73464 -706.93919,19.02383 z"
         sodipodi:nodetypes="ccccc" />
      <path
         id="path35"
         style="fill:#76310d;fill-opacity:1;stroke-width:6.01331;stroke-linecap:round;stroke-linejoin:round;paint-order:stroke fill markers"
         d="m -28.999796,916.31741 706.939186,-19.02383 77.8287,88.73464 -706.939186,19.02388 z"
         sodipodi:nodetypes="ccccc" />
      <path
         id="path36"
         style="fill:#76310d;fill-opacity:1;stroke-width:6.01331;stroke-linecap:round;stroke-linejoin:round;paint-order:stroke fill markers"
         d="m 704.74188,893.30809 706.93922,-19.02383 77.8287,88.73464 -706.93922,19.02388 z"
         sodipodi:nodetypes="ccccc" />
      <path
         id="path37"
         style="fill:#76310d;fill-opacity:1;stroke-width:6.01331;stroke-linecap:round;stroke-linejoin:round;paint-order:stroke fill markers"
         d="m 1441.0401,874.13366 706.9393,-19.02383 77.8287,88.73464 -706.9393,19.02388 z"
         sodipodi:nodetypes="ccccc" />
      <path
         id="path38"
         style="fill:#76310d;fill-opacity:1;stroke-width:6.01331;stroke-linecap:round;stroke-linejoin:round;paint-order:stroke fill markers"
         d="m 1158.5368,989.18026 706.9393,-19.02383 77.8287,88.73467 -706.9393,19.0239 z"
         sodipodi:nodetypes="ccccc" />
      <path
         id="path39"
         style="fill:#76310d;fill-opacity:1;stroke-width:6.01331;stroke-linecap:round;stroke-linejoin:round;paint-order:stroke fill markers"
         d="m 424.79512,1013.4679 706.93928,-19.02385 77.8287,88.73465 -706.93928,19.0239 z"
         sodipodi:nodetypes="ccccc" />
      <path
         id="path40"
         style="fill:#76310d;fill-opacity:1;stroke-width:6.01331;stroke-linecap:round;stroke-linejoin:round;paint-order:stroke fill markers"
         d="m -306.38997,1037.7555 706.93928,-19.0238 77.8287,88.7346 -706.93928,19.0239 z"
         sodipodi:nodetypes="ccccc" />
      <path
         id="path41"
         style="fill:#76310d;fill-opacity:1;stroke-width:6.01331;stroke-linecap:round;stroke-linejoin:round;paint-order:stroke fill markers"
         d="m 1810.4676,751.41728 706.9392,-19.02383 77.8287,88.73464 -706.9392,19.02383 z"
         sodipodi:nodetypes="ccccc" />
      <path
         id="path42"
         style="fill:#76310d;fill-opacity:1;stroke-width:6.01331;stroke-linecap:round;stroke-linejoin:round;paint-order:stroke fill markers"
         d="m 1888.4436,968.72753 706.9392,-19.02383 77.8287,88.7346 -706.9392,19.0239 z"
         sodipodi:nodetypes="ccccc" />
      <path
         id="path43"
         style="fill:#76310d;fill-opacity:1;stroke-width:6.01331;stroke-linecap:round;stroke-linejoin:round;paint-order:stroke fill markers"
         d="m -756.35,941.88332 706.93919,-19.02383 77.8287,88.73461 -706.93919,19.0239 z"
         sodipodi:nodetypes="ccccc" />
    </g>
    <g
       id="g28"
       inkscape:label="piano">
      <path
         id="rect5"
         style="fill:#b25e00;stroke-width:8;stroke-linecap:round;stroke-linejoin:round;paint-order:stroke fill markers"
         d="m 961.74059,253.08962 526.06481,72.31132 -16.27,215.12617 -531.4882,-72.31132 z"
         sodipodi:nodetypes="ccccc" />
      <path
         id="path5"
         style="fill:#aa5a00;stroke-width:8;stroke-linecap:round;stroke-linejoin:round;paint-order:stroke fill markers;fill-opacity:1"
         d="m 961.74059,253.08962 526.06481,72.31132 -16.27,215.12617 -12.5989,262.62717 75.8678,-40.30099 7.8097,-222.39419 12.2988,-269.42013 -427.1507,-70.90454 z"
         sodipodi:nodetypes="ccccccccc" />
      <path
         id="path6"
         style="fill:#a25600;stroke-width:8;stroke-linecap:round;stroke-linejoin:round;paint-order:stroke fill markers;fill-opacity:1"
         d="m 847.85026,526.06485 517.02594,75.92689 106.6592,-61.46463 -531.4882,-72.31132 z"
         sodipodi:nodetypes="ccccc" />
      <path
         id="path7"
         style="fill:#a25600;fill-opacity:1;stroke-width:8;stroke-linecap:round;stroke-linejoin:round;paint-order:stroke fill markers"
         d="m 1375.7785,842.92551 -10.9023,-240.93377 106.6592,-61.46463 -12.5989,262.62717 z"
         sodipodi:nodetypes="ccccc" />
      <path
         id="path8"
         style="fill:#904d00;fill-opacity:1;stroke-width:8;stroke-linecap:round;stroke-linejoin:round;paint-order:stroke fill markers"
         d="m 847.85026,526.06485 517.02594,75.92689 0.9039,21.81651 9.9984,219.11726 -32.0714,-20.00047 -7.0681,-203.06511 -487.88484,-66.10327 z"
         sodipodi:nodetypes="cccccccc" />
      <path
         id="rect8"
         style="fill:#e7e7e7;stroke-width:8;stroke-linecap:round;stroke-linejoin:round;paint-order:stroke fill markers"
         d="m 938.69134,473.18718 85.41776,14.01033 -52.42572,51.52181 -94.00472,-17.17394 z"
         sodipodi:nodetypes="ccccc" />
      <path
         id="path13"
         style="fill:#e7e7e7;stroke-width:8;stroke-linecap:round;stroke-linejoin:round;paint-order:stroke fill markers"
         d="m 1030.4363,487.1975 67.34,11.29865 -52.4258,51.52181 -63.27237,-10.8467 z"
         sodipodi:nodetypes="ccccc" />
      <path
         id="path14"
         style="fill:#e7e7e7;stroke-width:8;stroke-linecap:round;stroke-linejoin:round;paint-order:stroke fill markers"
         d="m 1103.6515,500.75587 104.3996,13.55838 -52.4258,51.52181 -100.332,-13.10643 z"
         sodipodi:nodetypes="ccccc" />
      <path
         id="path15"
         style="fill:#e7e7e7;stroke-width:8;stroke-linecap:round;stroke-linejoin:round;paint-order:stroke fill markers"
         d="m 1215.7341,514.31424 77.7347,9.94282 -52.4258,51.52181 -73.6671,-9.49087 z"
         sodipodi:nodetypes="ccccc" />
      <path
         id="path16"
         style="fill:#e7e7e7;stroke-width:8;stroke-linecap:round;stroke-linejoin:round;paint-order:stroke fill markers"
         d="m 1301.6037,525.61289 130.6125,16.27005 -59.6569,49.71403 -119.3138,-14.01032 z"
         sodipodi:nodetypes="ccccc" />
      <path
         id="rect16"
         style="stroke-width:8;stroke-linecap:round;stroke-linejoin:round;paint-order:stroke fill markers"
         d="m 948.01598,472.33022 10.38615,1.11851 -20.61251,25.7257 -10.86552,-2.07723 z"
         sodipodi:nodetypes="ccccc" />
      <path
         id="path17"
         style="stroke-width:8;stroke-linecap:round;stroke-linejoin:round;paint-order:stroke fill markers"
         d="m 970.70573,476.32489 9.42743,2.07724 -19.65379,24.76697 -11.50467,-0.95872 z"
         sodipodi:nodetypes="ccccc" />
      <path
         id="path18"
         style="stroke-width:8;stroke-linecap:round;stroke-linejoin:round;paint-order:stroke fill markers"
         d="m 994.19441,480.47935 9.42739,2.07724 -19.65375,24.76697 -11.50467,-0.95872 z"
         sodipodi:nodetypes="ccccc" />
      <path
         id="path19"
         style="stroke-width:8;stroke-linecap:round;stroke-linejoin:round;paint-order:stroke fill markers"
         d="m 1043.4088,487.1904 9.4274,2.07724 -19.6538,24.76697 -11.5046,-0.95872 z"
         sodipodi:nodetypes="ccccc" />
      <path
         id="path20"
         style="stroke-width:8;stroke-linecap:round;stroke-linejoin:round;paint-order:stroke fill markers"
         d="m 1068.016,491.66443 9.4274,2.07724 -19.6538,24.76697 -11.5046,-0.95872 z"
         sodipodi:nodetypes="ccccc" />
      <path
         id="path21"
         style="stroke-width:8;stroke-linecap:round;stroke-linejoin:round;paint-order:stroke fill markers"
         d="m 1119.787,499.65378 9.4274,2.07724 -19.6538,24.76697 -11.5046,-0.95872 z"
         sodipodi:nodetypes="ccccc" />
      <path
         id="path22"
         style="stroke-width:8;stroke-linecap:round;stroke-linejoin:round;paint-order:stroke fill markers"
         d="m 1147.9095,503.80824 9.4274,2.07724 -19.6538,24.76697 -11.5046,-0.95872 z"
         sodipodi:nodetypes="ccccc" />
      <path
         id="path23"
         style="stroke-width:8;stroke-linecap:round;stroke-linejoin:round;paint-order:stroke fill markers"
         d="m 1176.9907,507.9627 9.4274,2.07724 -19.6538,24.76697 -11.5046,-0.95872 z"
         sodipodi:nodetypes="ccccc" />
      <path
         id="path24"
         style="stroke-width:8;stroke-linecap:round;stroke-linejoin:round;paint-order:stroke fill markers"
         d="m 1230.3595,514.35418 9.4274,2.07724 -19.6538,24.76697 -11.5046,-0.95872 z"
         sodipodi:nodetypes="ccccc" />
      <path
         id="path25"
         style="stroke-width:8;stroke-linecap:round;stroke-linejoin:round;paint-order:stroke fill markers"
         d="m 1261.6777,518.82821 9.4274,2.07724 -19.6538,24.76697 -11.5046,-0.95872 z"
         sodipodi:nodetypes="ccccc" />
      <path
         id="path26"
         style="stroke-width:8;stroke-linecap:round;stroke-linejoin:round;paint-order:stroke fill markers"
         d="m 1318.2423,524.90011 9.4274,2.07724 -19.6538,24.76697 -11.5046,-0.95872 z"
         sodipodi:nodetypes="ccccc" />
      <path
         id="path27"
         style="stroke-width:8;stroke-linecap:round;stroke-linejoin:round;paint-order:stroke fill markers"
         d="m 1350.8388,528.41542 9.4274,2.07724 -19.6538,24.76697 -11.5046,-0.95872 z"
         sodipodi:nodetypes="ccccc" />
      <path
         id="path28"
         style="stroke-width:8;stroke-linecap:round;stroke-linejoin:round;paint-order:stroke fill markers"
         d="m 1383.1158,533.84818 9.4274,2.07724 -19.6538,24.76697 -11.5046,-0.95872 z"
         sodipodi:nodetypes="ccccc" />
    </g>
    <path
       id="rect29"
       style="fill:#ffffff;stroke-width:16;stroke-linecap:round;stroke-linejoin:round;paint-order:stroke fill markers"
       d="m 1131.2916,227.53662 181.518,31.95739 -39.6271,201.97072 -175.1266,-25.56592 z"
       sodipodi:nodetypes="ccccc" />
    <circle
       style="fill:#f7c574;fill-opacity:1;stroke:#000000;stroke-width:16;stroke-linecap:round;stroke-linejoin:round;stroke-dasharray:none;stroke-opacity:1;paint-order:stroke fill markers"
       id="path29"
       cx="1241.225"
       cy="548.38885"
       r="64.553925" />
    <circle
       style="fill:#f7c574;fill-opacity:1;stroke-width:16;stroke-linecap:round;stroke-linejoin:round;paint-order:stroke fill markers;stroke:#000000;stroke-opacity:1;stroke-dasharray:none"
       id="path4"
       cx="974.24829"
       cy="584.66272"
       r="238.62735" />
  </g>
</svg>
