<?xml version="1.0" encoding="UTF-8" standalone="no"?>
<!-- Created with Inkscape (http://www.inkscape.org/) -->

<svg
   width="378.57584"
   height="41.478046"
   viewBox="0 0 100.16485 10.9744"
   version="1.1"
   id="svg1"
   inkscape:version="1.3.2 (091e20ef0f, 2023-11-25, custom)"
   sodipodi:docname="hands.svg"
   xmlns:inkscape="http://www.inkscape.org/namespaces/inkscape"
   xmlns:sodipodi="http://sodipodi.sourceforge.net/DTD/sodipodi-0.dtd"
   xmlns="http://www.w3.org/2000/svg"
   xmlns:svg="http://www.w3.org/2000/svg">
  <sodipodi:namedview
     id="namedview1"
     pagecolor="#ffffff"
     bordercolor="#666666"
     borderopacity="1.0"
     inkscape:showpageshadow="2"
     inkscape:pageopacity="0.0"
     inkscape:pagecheckerboard="0"
     inkscape:deskcolor="#d1d1d1"
     inkscape:document-units="px"
     inkscape:zoom="0.72604517"
     inkscape:cx="293.37018"
     inkscape:cy="28.235158"
     inkscape:window-width="1920"
     inkscape:window-height="1004"
     inkscape:window-x="1920"
     inkscape:window-y="1080"
     inkscape:window-maximized="1"
     inkscape:current-layer="hands" />
  <defs
     id="defs1" />
  <g
     inkscape:label="Layer 1"
     inkscape:groupmode="layer"
     id="layer1"
     transform="translate(-54.768744,-143.13958)">
    <g
       id="hands"
       transform="matrix(5.5015701,1.2844576,-1.33602,5.289228,34.99212,-70.102553)">
      <path
         id="rect7-5"
         style="display:inline;fill:#fdc4a0;fill-opacity:1;stroke-width:0.0934391;stroke-linecap:round;stroke-linejoin:round"
         d="m 12.775883,37.806885 c -0.155396,-0.644487 3.116487,-1.655963 3.365267,-0.757815 0.248781,0.898148 -0.240906,1.470908 -0.767163,1.608427 -0.526257,0.137519 -1.543767,0.01222 -1.911497,-0.08347 -0.36773,-0.0957 -0.531213,-0.12265 -0.686607,-0.767138 z"
         sodipodi:nodetypes="zzzzz" />
      <path
         id="path8-3"
         style="display:inline;fill:#fdc4a0;fill-opacity:1;stroke-width:0.0923621;stroke-linecap:round;stroke-linejoin:round"
         d="m 29.967551,33.627599 c -0.157936,-0.645891 -3.443729,-0.06552 -3.251474,0.849196 0.192254,0.914716 0.875077,1.204085 1.39216,1.088264 0.517081,-0.115821 1.339488,-0.689036 1.613851,-0.941203 0.27436,-0.252176 0.403403,-0.350362 0.245465,-0.996254 z"
         sodipodi:nodetypes="zzzzz" />
    </g>
  </g>
</svg>
